<?xml version="1.0" encoding="iso-8859-1"?>
<!-- Generator: Adobe Illustrator 19.0.0, SVG Export Plug-In . SVG Version: 6.00 Build 0)  -->
<svg version="1.1" id="Layer_1" xmlns="http://www.w3.org/2000/svg" xmlns:xlink="http://www.w3.org/1999/xlink" x="0px" y="0px"
	 viewBox="0 0 503.467 503.467" style="enable-background:new 0 0 503.467 503.467;" xml:space="preserve">
<g transform="translate(1 2)">
	<path style="fill:#FF7474;" d="M37.4,335.067h426.667v42.667H37.4V335.067z M37.4,249.733h426.667v34.133H37.4V249.733z"/>
	<path style="fill:#FFE079;" d="M208.067,249.733l-34.133,34.133l-17.067,17.067L139.8,283.867l-34.133-34.133H208.067z M37.4,215.6
		h426.667v34.133H37.4V215.6z"/>
	<path style="fill:#AE938D;" d="M498.2,300.933V318c0,9.387-7.68,17.067-17.067,17.067h-460.8c-9.387,0-17.067-7.68-17.067-17.067
		v-17.067c0-9.387,7.68-17.067,17.067-17.067H139.8l17.067,17.067l17.067-17.067h307.2C490.52,283.867,498.2,291.547,498.2,300.933"
		/>
	<path style="fill:#F2EDDA;" d="M481.133,437.467v17.067c0,18.773-15.36,34.133-34.133,34.133H54.467
		c-18.773,0-34.133-15.36-34.133-34.133v-17.067c0-9.387,7.68-17.067,17.067-17.067h426.667
		C473.453,420.4,481.133,428.08,481.133,437.467z M250.733,10.8c247.467,0,230.4,187.733,230.4,187.733
		c0,10.24-6.827,17.067-17.067,17.067H37.4c-10.24,0-17.067-6.827-17.067-17.067C20.333,198.533,3.267,10.8,250.733,10.8z"/>
	<rect x="37.4" y="377.733" style="fill:#50DD8E;" width="426.667" height="42.667"/>
</g>
<path style="fill:#51565F;" d="M448,494.933H55.467c-21.333,0-38.4-17.067-38.4-38.4v-17.067c0-11.947,9.387-21.333,21.333-21.333
	h426.667c11.947,0,21.333,9.387,21.333,21.333v17.067C486.4,477.867,469.333,494.933,448,494.933z M38.4,426.667
	c-6.827,0-12.8,5.973-12.8,12.8v17.067c0,16.213,13.653,29.867,29.867,29.867H448c16.213,0,29.867-13.653,29.867-29.867v-17.067
	c0-6.827-5.973-12.8-12.8-12.8H38.4z M439.467,392.533c-10.24,0-15.36-5.12-20.48-9.387c-4.267-4.267-7.68-7.68-13.653-7.68
	c-5.973,0-10.24,3.413-13.653,7.68c-4.267,4.267-9.387,9.387-20.48,9.387s-15.36-5.12-20.48-9.387
	c-4.267-4.267-7.68-7.68-13.653-7.68s-10.24,3.413-13.653,7.68c-4.267,4.267-9.387,9.387-20.48,9.387s-15.36-5.12-20.48-9.387
	c-4.267-4.267-7.68-7.68-13.653-7.68c-5.973,0-10.24,3.413-13.653,7.68c-4.267,4.267-9.387,9.387-20.48,9.387
	c-11.093,0-15.36-5.12-20.48-9.387c-4.267-4.267-7.68-7.68-13.653-7.68s-10.24,3.413-13.653,7.68
	c-4.267,4.267-9.387,9.387-20.48,9.387s-15.36-5.12-20.48-9.387c-4.267-4.267-7.68-7.68-13.653-7.68
	c-5.973,0-10.24,3.413-13.653,7.68c-4.267,4.267-9.387,9.387-20.48,9.387s-15.36-5.12-20.48-9.387
	c-4.267-4.267-7.68-7.68-13.653-7.68c-15.36,0-30.72,15.36-30.72,16.213c-1.707,1.707-4.267,1.707-5.973,0
	c-1.707-1.707-1.707-4.267,0-5.973c0.853-0.853,18.773-17.92,37.547-17.92c10.24,0,15.36,5.12,20.48,9.387
	c4.267,4.267,7.68,7.68,13.653,7.68c5.973,0,10.24-3.413,13.653-7.68c4.267-4.267,9.387-9.387,20.48-9.387s15.36,5.12,20.48,9.387
	c4.267,4.267,7.68,7.68,13.653,7.68c5.973,0,10.24-3.413,13.653-7.68c4.267-4.267,9.387-9.387,20.48-9.387s15.36,5.12,20.48,9.387
	c4.267,4.267,7.68,7.68,13.653,7.68s10.24-3.413,13.653-7.68c4.267-4.267,9.387-9.387,20.48-9.387s15.36,5.12,20.48,9.387
	c4.267,4.267,7.68,7.68,13.653,7.68c5.973,0,10.24-3.413,13.653-7.68c4.267-4.267,9.387-9.387,20.48-9.387s15.36,5.12,20.48,9.387
	c4.267,4.267,7.68,7.68,13.653,7.68c5.973,0,10.24-3.413,13.653-7.68c4.267-4.267,9.387-9.387,20.48-9.387s15.36,5.12,20.48,9.387
	c4.267,4.267,7.68,7.68,13.653,7.68c15.36,0,30.72-15.36,30.72-16.213c1.707-1.707,4.267-1.707,5.973,0s1.707,4.267,0,5.973
	C476.16,374.613,458.24,392.533,439.467,392.533z M482.133,341.333h-460.8C9.387,341.333,0,331.947,0,320v-17.067
	C0,290.987,9.387,281.6,21.333,281.6h76.8c2.56,0,4.267,1.707,4.267,4.267c0,2.56-1.707,4.267-4.267,4.267h-76.8
	c-6.827,0-12.8,5.973-12.8,12.8V320c0,6.827,5.973,12.8,12.8,12.8h460.8c6.827,0,12.8-5.973,12.8-12.8v-17.067
	c0-6.827-5.973-12.8-12.8-12.8H217.6c-2.56,0-4.267-1.707-4.267-4.267c0-2.56,1.707-4.267,4.267-4.267h264.533
	c11.947,0,21.333,9.387,21.333,21.333V320C503.467,331.947,494.08,341.333,482.133,341.333z M157.867,307.2
	c-0.853,0-2.56,0-3.413-0.853L104.107,256h-66.56c-2.56,0-4.267-1.707-4.267-4.267c0-2.56,1.707-4.267,4.267-4.267h68.267
	c0.853,0,2.56,0.853,3.413,0.853l47.787,47.787L204.8,248.32c0.853-0.853,1.707-0.853,3.413-0.853h256
	c2.56,0,4.267,1.707,4.267,4.267c0,2.56-1.707,4.267-4.267,4.267H209.92l-50.347,50.347C160.427,307.2,158.72,307.2,157.867,307.2z
	 M465.067,221.867H38.4c-12.8,0-21.333-8.533-21.333-21.333c0-2.56-5.973-70.827,44.373-125.44
	c40.107-44.373,104.107-66.56,190.293-66.56S401.92,30.72,442.027,75.093c49.493,53.76,45.227,121.173,44.373,125.44
	C486.4,213.333,477.867,221.867,465.067,221.867z M251.733,17.067c-83.627,0-145.067,21.333-184.32,64
	C19.627,133.12,24.747,199.68,25.6,200.533c0,8.533,5.12,12.8,12.8,12.8h426.667c7.68,0,12.8-5.12,12.8-12.8l0,0
	c0-0.853,5.12-67.413-42.667-119.467C396.8,38.4,335.36,17.067,251.733,17.067z M290.133,102.4c-5.12,0-8.533-3.413-8.533-8.533
	c0-5.12,3.413-8.533,8.533-8.533c5.12,0,8.533,3.413,8.533,8.533C298.667,98.987,295.253,102.4,290.133,102.4z M392.533,93.867
	c-5.12,0-8.533-3.413-8.533-8.533c0-5.12,3.413-8.533,8.533-8.533s8.533,3.413,8.533,8.533
	C401.067,90.453,397.653,93.867,392.533,93.867z M332.8,85.333c-5.12,0-8.533-3.413-8.533-8.533c0-5.12,3.413-8.533,8.533-8.533
	s8.533,3.413,8.533,8.533C341.333,81.92,337.92,85.333,332.8,85.333z M238.933,68.267c-5.12,0-8.533-3.413-8.533-8.533
	s3.413-8.533,8.533-8.533s8.533,3.413,8.533,8.533S244.053,68.267,238.933,68.267z M298.667,51.2c-5.12,0-8.533-3.413-8.533-8.533
	s3.413-8.533,8.533-8.533s8.533,3.413,8.533,8.533S303.787,51.2,298.667,51.2z"/>
<g>
</g>
<g>
</g>
<g>
</g>
<g>
</g>
<g>
</g>
<g>
</g>
<g>
</g>
<g>
</g>
<g>
</g>
<g>
</g>
<g>
</g>
<g>
</g>
<g>
</g>
<g>
</g>
<g>
</g>
</svg>
